<?xml version="1.0"?>
<svg id="Your_Design" data-name="Your Design" xmlns="http://www.w3.org/2000/svg" viewBox="0 0 67.83 80.03" fill="#ecdca0">
  <defs>
    
  </defs>
  <g>
    <path class="cls-1" d="M17.33,7.95C5.15,15.91,.52,30.72,2.09,44.69c.8,7.1,2.64,15.26,6.79,21.22s11.1,8.47,18.04,9.29c6.82,.81,14.94,1.2,21.17-2.18,2.99-1.63,5.3-4.17,7.46-6.74,2.39-2.85,4.84-5.76,6.55-9.09,3.41-6.66,3.92-14.37,3.42-21.71-.49-7.2-1.89-14.58-5.77-20.78C50.82,.39,31.44-.7,17.81,7.32c-1.46,.86-.15,3.13,1.31,2.27,11.07-6.51,27.39-7.04,36.25,3.49,4.21,5,6.19,11.44,7.07,17.82,.91,6.58,1.09,13.65-.73,20.09-1.79,6.33-6.13,11.78-10.68,16.41-4.97,5.06-11.4,5.77-18.18,5.57-6.79-.21-14.34-1.07-19.54-5.92-4.78-4.46-6.66-11.86-7.91-18.06-2.85-14.18,.44-30.43,13.23-38.78,1.41-.92,.11-3.2-1.31-2.27h0Z"></path>
    <path class="cls-1" d="M27.67,74.91c-.23,0-.46-.06-.67-.19-.59-.37-.77-1.15-.41-1.74,2.12-3.41,5.3-5.85,8.38-8.21,2.79-2.14,5.43-4.16,7.32-6.84,.5-.71,1.6-2.5,.97-3.79-.46-.93-1.73-1.49-3.88-1.68-1.88-.17-3.79-.21-5.68-.12l-.9,.05c-1.43,.09-2.91,.18-4.42-.07-2.28-.38-4.12-1.56-5.04-3.22-.34-.61-.12-1.38,.49-1.72,.61-.34,1.38-.12,1.72,.49,.54,.97,1.75,1.7,3.25,1.95,1.22,.21,2.49,.13,3.84,.04,.31-.02,.62-.04,.93-.05,2-.1,4.04-.06,6.04,.12,1.14,.1,4.61,.42,5.91,3.08,.88,1.79,.46,4.05-1.17,6.36-2.12,2.99-5.03,5.22-7.85,7.38-3.03,2.32-5.89,4.51-7.77,7.54-.24,.38-.65,.6-1.07,.6Z"></path>
    <path class="cls-1" d="M5.91,55.3l-.88-2.37,24.49-9.09c5.45-2.02,10.77-3.69,15.86-1.88,2.76,.98,4.97,2.85,7.11,4.66,.47,.39,.93,.79,1.4,1.17,3.12,2.55,5.68,3.66,8.05,3.47l.19,2.52c-4.01,.31-7.53-2.16-9.83-4.03-.48-.39-.96-.8-1.43-1.2-2.05-1.74-3.99-3.38-6.32-4.21-4.3-1.52-9.14,.01-14.14,1.87L5.91,55.3Z"></path>
    <path class="cls-1" d="M36.49,21.29c-.54-.25-1.11-.38-1.69-.18s-1.06,.56-1.38,1.1c-.6,1.04-.2,2.43,.87,2.98,.88,.46,2.09,.35,2.77-.44,.49-.57,.69-1.29,.52-2.03-.15-.63-.54-1.09-1.07-1.44-.35-.23-.91-.28-1.3-.17-.42,.11-.87,.43-1.08,.82s-.31,.87-.17,1.3c.14,.47,.42,.8,.82,1.08l.04,.03-.36-.27s.07,.07,.1,.11l-.29-.37s.05,.08,.07,.13l-.18-.43s.03,.09,.03,.15l-.06-.45s0,.07,0,.1l.06-.44c0,.05-.02,.1-.04,.14l.17-.41s-.02,.05-.04,.07l.27-.36s-.05,.06-.08,.08l.37-.29s-.09,.06-.13,.08l.43-.18s-.07,.02-.11,.03l.45-.06c-.05,0-.11,0-.16,0l.44,.06c-.05,0-.1-.02-.15-.04l.41,.17s-.09-.05-.13-.08l.36,.27s-.05-.05-.08-.08l.29,.37s-.03-.04-.04-.07l.18,.43s-.03-.08-.03-.13l.06,.45s0-.06,0-.09l-.06,.44s.02-.08,.03-.13l-.17,.41s.04-.08,.07-.12l-.27,.36s.08-.09,.13-.13l-.37,.29s.08-.05,.12-.07l-.43,.18s.08-.03,.13-.04l-.45,.06s.09,0,.13,0l-.44-.06s.06,.01,.09,.02l-.41-.17,.04,.02c.42,.19,.84,.29,1.3,.17,.42-.11,.87-.43,1.08-.82s.31-.87,.17-1.3-.4-.88-.82-1.08h0Z"></path>
    <path class="cls-1" d="M47.34,19.78c.29,.21,.76,.33,1.12,.33,.4,0,.81-.1,1.16-.3,.71-.4,1.17-1.18,1.15-2s-.51-1.65-1.26-2.04-1.57-.37-2.27,.04c-1.31,.76-1.72,2.67-.6,3.78,.94,.94,2.56,.91,3.5-.03,.79-.79,.92-2.13,.12-2.97-.37-.38-.87-.56-1.4-.57-.35,0-.55,.1-.85,.17l.45-.06s-.07,0-.11,0l.44,.06h-.05c-.45-.1-.91-.07-1.32,.16-.37,.21-.72,.63-.81,1.06-.2,.88,.28,1.94,1.23,2.14,.37,.08,.73,.09,1.1,0,.11-.03,.21-.07,.32-.1l-.45,.06s.06,0,.09,0l-.44-.06h.04c-.14-.04-.28-.1-.41-.16l.04,.02-.36-.27,.03,.04-.29-.37,.03,.07-.23-.88s0,.1,0,.15l.06-.44s-.02,.07-.03,.1l.17-.41s-.05,.09-.08,.13l.27-.36s-.07,.07-.11,.11l.37-.29c-.06,.04-.12,.07-.18,.1l.43-.18c-.07,.02-.13,.04-.2,.05l.45-.06c-.07,0-.14,0-.21,0l.44,.06c-.05,0-.1-.02-.15-.04l.41,.17s-.09-.04-.13-.07l.36,.27s-.08-.06-.11-.1l.29,.37s-.06-.09-.08-.15l.18,.43s-.02-.07-.03-.11l.06,.45c0-.06,0-.11,0-.17l-.06,.44c.01-.08,.03-.15,.06-.22l-.17,.41c.03-.05,.05-.1,.09-.15l-.27,.36c.05-.06,.1-.12,.16-.17l-.37,.29s.09-.06,.15-.09l-.43,.18c.06-.02,.1-.03,.16-.04l-.45,.06s.08,0,.11,0l-.44-.06c.07,.01,.12,.03,.18,.05l-.41-.17s.08,.04,.11,.07l-.36-.27c.05,.05,.1,.09,.14,.14l-.29-.37s.05,.07,.07,.12l-.18-.43c.03,.06,.04,.12,.05,.19l-.06-.45s0,.09,0,.13l.06-.44s-.02,.08-.03,.12l.17-.41s-.04,.07-.06,.1l.27-.36s-.05,.06-.08,.08l.37-.29c-.05,.04-.1,.06-.15,.09l.43-.18s-.07,.03-.11,.03l.45-.06c-.06,0-.11,0-.17,0l.44,.06s-.07-.02-.11-.03l.41,.17s-.07-.04-.1-.06c-.33-.24-.93-.27-1.3-.17-.42,.11-.87,.43-1.08,.82s-.31,.87-.17,1.3l.18,.43c.16,.27,.37,.49,.65,.64h0Z"></path>
    <path class="cls-1" d="M44.37,30.5c-.21,1,.19,1.94,1.07,2.47s1.97,.29,2.67-.38c1.19-1.13,.77-3.17-.62-3.92-.73-.39-1.62-.41-2.35-.01-.58,.32-1.03,.92-1.16,1.57-.15,.79,.01,1.65,.61,2.23s1.42,.78,2.22,.58,1.54-.91,1.7-1.74c.12-.63,.02-1.24-.37-1.75-.37-.48-1.01-.86-1.64-.8-.48,.04-.9,.17-1.25,.52-.29,.3-.52,.79-.5,1.22,.03,.87,.76,1.84,1.74,1.75h.06c-.15-.03-.29-.05-.44-.07h.06c-.14-.05-.28-.1-.41-.16,.04,.01,.08,.03,.11,.06l-.36-.27,.04,.05-.29-.37,.03,.06-.18-.43,.02,.06-.06-.45s0,.08,0,.12l.06-.44s-.01,.08-.02,.11l.17-.41c-.02,.06-.05,.1-.09,.15l.27-.36s-.08,.09-.13,.13l.37-.29c-.05,.04-.1,.06-.16,.09l.43-.18c-.06,.02-.11,.03-.18,.04l.45-.06s-.08,0-.12,0l.44,.06s-.08-.01-.12-.03l.41,.17s-.07-.03-.11-.05l.36,.27s-.09-.07-.12-.12l.29,.37s-.06-.1-.08-.15l.18,.43c-.02-.06-.03-.11-.04-.17l.06,.45c0-.06,0-.12,0-.18l-.06,.44c.01-.06,.02-.11,.04-.17l-.17,.41c.02-.06,.05-.1,.08-.15l-.27,.36s.07-.09,.12-.13l-.37,.29c.05-.04,.1-.06,.16-.09l-.43,.18s.08-.02,.12-.03l-.45,.06c.07,0,.12,0,.19,0l-.44-.06c.07,.01,.12,.03,.19,.05l-.41-.17c.08,.04,.15,.08,.22,.13l-.36-.27c.05,.04,.09,.09,.14,.14l-.29-.37c.04,.05,.07,.11,.1,.17l-.18-.43c.02,.07,.04,.12,.05,.19l-.06-.45s0,.09,0,.14l.06-.44c-.01,.07-.03,.14-.05,.2l.17-.41c-.03,.07-.06,.12-.11,.18l.27-.36s-.06,.07-.1,.09l.37-.29s-.08,.05-.12,.07l.43-.18s-.09,.03-.13,.03l.45-.06h-.07c.15,.02,.29,.04,.44,.06-.05,0-.09-.01-.13-.03l.41,.17s-.08-.04-.12-.07l.36,.27s-.07-.06-.1-.09l.29,.37s-.05-.07-.07-.11l.18,.43s-.03-.08-.03-.13l.06,.45v-.07c-.02,.15-.04,.29-.06,.44v-.07c.2-.89-.27-1.92-1.22-2.14-.88-.2-1.93,.28-2.14,1.23h0Z"></path>
    <g class="cls-2" opacity="0">
      <g>
        <path class="cls-1" d="M65.32,35.5c.49,7.34-.02,15.06-3.42,21.72-1.71,3.33-4.16,6.24-6.55,9.09-2.17,2.57-4.47,5.11-7.46,6.74-6.23,3.38-14.35,2.99-21.17,2.18-6.94-.82-13.9-3.35-18.04-9.29-4.16-5.96-6-14.12-6.8-21.22C.31,30.79,4.91,16.02,17.02,8.05c-.31,.99,.74,2.25,1.89,1.57l.06-.03c-.09,.25-.26,.48-.54,.66C5.64,18.6,2.35,34.85,5.2,49.03c1.25,6.2,3.13,13.6,7.91,18.06,5.2,4.85,12.75,5.71,19.54,5.92,6.77,.2,13.21-.51,18.17-5.57,4.56-4.64,8.89-10.08,10.68-16.41,1.83-6.44,1.64-13.51,.74-20.09-.88-6.39-2.87-12.82-7.08-17.82C46.32,2.6,30.04,3.11,18.97,9.59c.36-1.03-.71-2.36-1.85-1.61-.03,.02-.07,.04-.1,.07,.08-.27,.27-.51,.58-.7C31.23-.67,50.61,.42,59.55,14.73c3.87,6.2,5.28,13.57,5.77,20.77Z"></path>
        <path class="cls-1" d="M62.24,30.94c.9,6.58,1.09,13.65-.74,20.09-1.79,6.33-6.12,11.77-10.68,16.41-4.96,5.06-11.4,5.77-18.17,5.57-6.79-.21-14.34-1.07-19.54-5.92-4.78-4.46-6.66-11.86-7.91-18.06-2.85-14.18,.44-30.43,13.23-38.78,.28-.18,.45-.41,.54-.66,11.07-6.48,27.35-6.99,36.19,3.53,4.21,5,6.2,11.43,7.08,17.82Z"></path>
        <path class="cls-1" d="M17.12,7.98c1.14-.75,2.21,.58,1.85,1.61l-.06,.03c-1.15,.68-2.2-.58-1.89-1.57,.03-.03,.07-.05,.1-.07Z"></path>
      </g>
    </g>
  </g>
  <path class="cls-1" d="M17.42,29.3c0-4.33,3.07-7.94,7.14-8.78-.59-.12-1.2-.19-1.82-.19-4.95,0-8.96,4.01-8.96,8.96s4.01,8.96,8.96,8.96c.62,0,1.23-.06,1.82-.19-4.08-.84-7.14-4.45-7.14-8.78Z"></path>
</svg>